<svg xmlns="http://www.w3.org/2000/svg" xmlns:xlink="http://www.w3.org/1999/xlink" zoomAndPan="magnify" preserveAspectRatio="xMidYMid meet" version="1.0" viewBox="26.17 285.07 622.47 240.89"><defs><g/><clipPath id="863b045831"><path d="M 604 439 L 628 439 L 628 525.824219 L 604 525.824219 Z M 604 439 " clip-rule="nonzero"/></clipPath><clipPath id="dce8530011"><path d="M 576.640625 285.074219 L 648.640625 285.074219 L 648.640625 394 L 576.640625 394 Z M 576.640625 285.074219 " clip-rule="nonzero"/></clipPath></defs><path fill="#5271ff" d="M 628.925781 427.832031 L 602.921875 427.832031 C 603.441406 429.710938 603.863281 431.640625 604.144531 433.566406 L 627.703125 433.566406 C 627.984375 431.640625 628.410156 429.710938 628.925781 427.832031 Z M 628.925781 427.832031 " fill-opacity="1" fill-rule="nonzero"/><g clip-path="url(#863b045831)"><path fill="#5271ff" d="M 612.046875 522.4375 C 612.234375 524.460938 613.878906 525.964844 615.902344 525.964844 C 617.921875 525.964844 619.570312 524.414062 619.757812 522.4375 L 627.046875 439.210938 L 604.804688 439.210938 Z M 612.046875 522.4375 " fill-opacity="1" fill-rule="nonzero"/></g><path fill="#5271ff" d="M 633.15625 417.628906 L 641.292969 403.332031 C 642.65625 400.984375 640.917969 398.019531 638.1875 398.019531 L 593.613281 398.019531 C 590.886719 398.019531 589.191406 400.984375 590.511719 403.332031 L 598.644531 417.628906 C 599.492188 419.085938 600.195312 420.636719 600.902344 422.1875 L 630.949219 422.1875 C 631.605469 420.636719 632.359375 419.132812 633.15625 417.628906 Z M 633.15625 417.628906 " fill-opacity="1" fill-rule="nonzero"/><g clip-path="url(#dce8530011)"><path fill="#ff7302" d="M 644.160156 342.160156 C 644.679688 344.839844 643.832031 349.304688 642.28125 353.539062 C 641.808594 347.238281 640.539062 343.050781 640.539062 343.050781 C 637.203125 329.933594 629.492188 321.800781 624.695312 318.085938 C 617.875 312.960938 618.628906 309.761719 618.816406 309.199219 C 616.652344 314.183594 618.863281 319.402344 618.863281 319.402344 C 612.1875 313.242188 607.34375 313.523438 601.277344 305.292969 C 597.234375 299.792969 600.242188 290.625 602.59375 285.21875 L 600.148438 288.132812 C 597.84375 291.1875 594.601562 296.125 594.128906 300.5 C 593.332031 307.550781 595.917969 315.453125 602.78125 324.148438 C 604.851562 326.785156 605.886719 329.839844 606.121094 332.894531 C 607.15625 345.402344 595.730469 358.523438 593.566406 347.050781 C 593.144531 344.792969 592.4375 342.816406 591.542969 341.171875 C 586.75 332.191406 576.640625 330.96875 576.640625 330.96875 C 590.179688 335.71875 582.796875 352.175781 582.796875 360.78125 C 582.796875 377.332031 595.070312 391.015625 611.058594 393.222656 C 607.8125 391.109375 597.046875 382.878906 605.414062 372.816406 C 610.683594 366.421875 619.898438 363.929688 618.957031 356.546875 C 618.957031 356.546875 622.8125 368.726562 617.78125 376.296875 C 626.808594 375.074219 629.539062 367.785156 629.539062 367.785156 C 629.539062 367.785156 632.875 376.90625 629.347656 384.761719 C 626.855469 390.308594 621.871094 392.519531 619.191406 393.269531 C 635.554688 391.4375 648.296875 377.566406 648.296875 360.683594 C 648.347656 354.949219 646.792969 348.367188 644.160156 342.160156 Z M 644.160156 342.160156 " fill-opacity="1" fill-rule="nonzero"/></g><g fill="#ffffff" fill-opacity="1"><g transform="translate(22.24904, 473.467731)"><g><path d="M 120.359375 -119.09375 L 76.578125 -119.09375 L 76.578125 0 L 47.125 0 L 47.125 -119.09375 L 3.921875 -119.09375 L 3.921875 -142.9375 L 120.359375 -142.9375 Z M 120.359375 -119.09375 "/></g></g><g transform="translate(146.639913, 473.467731)"><g><path d="M 6.484375 -54.09375 C 6.484375 -64.632812 8.507812 -74.023438 12.5625 -82.265625 C 16.625 -90.515625 22.46875 -96.894531 30.09375 -101.40625 C 37.71875 -105.925781 46.566406 -108.1875 56.640625 -108.1875 C 70.972656 -108.1875 82.671875 -103.800781 91.734375 -95.03125 C 100.804688 -86.257812 105.863281 -74.347656 106.90625 -59.296875 L 107.109375 -52.03125 C 107.109375 -35.738281 102.554688 -22.664062 93.453125 -12.8125 C 84.359375 -2.957031 72.15625 1.96875 56.84375 1.96875 C 41.53125 1.96875 29.304688 -2.9375 20.171875 -12.75 C 11.046875 -22.570312 6.484375 -35.925781 6.484375 -52.8125 Z M 34.859375 -52.03125 C 34.859375 -41.945312 36.753906 -34.238281 40.546875 -28.90625 C 44.335938 -23.570312 49.769531 -20.90625 56.84375 -20.90625 C 63.71875 -20.90625 69.082031 -23.539062 72.9375 -28.8125 C 76.800781 -34.082031 78.734375 -42.507812 78.734375 -54.09375 C 78.734375 -63.976562 76.800781 -71.632812 72.9375 -77.0625 C 69.082031 -82.5 63.648438 -85.21875 56.640625 -85.21875 C 49.703125 -85.21875 44.335938 -82.515625 40.546875 -77.109375 C 36.753906 -71.710938 34.859375 -63.351562 34.859375 -52.03125 Z M 34.859375 -52.03125 "/></g></g><g transform="translate(260.329441, 473.467731)"><g><path d="M 70.59375 -79.625 C 66.726562 -80.144531 63.320312 -80.40625 60.375 -80.40625 C 49.644531 -80.40625 42.609375 -76.773438 39.265625 -69.515625 L 39.265625 0 L 10.890625 0 L 10.890625 -106.21875 L 37.703125 -106.21875 L 38.484375 -93.5625 C 44.179688 -103.3125 52.066406 -108.1875 62.140625 -108.1875 C 65.285156 -108.1875 68.234375 -107.757812 70.984375 -106.90625 Z M 70.59375 -79.625 "/></g></g><g transform="translate(333.668022, 473.467731)"><g><path d="M 55.078125 -20.90625 C 60.316406 -20.90625 64.570312 -22.34375 67.84375 -25.21875 C 71.113281 -28.101562 72.8125 -31.9375 72.9375 -36.71875 L 99.546875 -36.71875 C 99.484375 -29.519531 97.519531 -22.925781 93.65625 -16.9375 C 89.789062 -10.945312 84.503906 -6.296875 77.796875 -2.984375 C 71.085938 0.316406 63.675781 1.96875 55.5625 1.96875 C 40.382812 1.96875 28.410156 -2.859375 19.640625 -12.515625 C 10.867188 -22.171875 6.484375 -35.507812 6.484375 -52.53125 L 6.484375 -54.390625 C 6.484375 -70.753906 10.832031 -83.8125 19.53125 -93.5625 C 28.238281 -103.3125 40.1875 -108.1875 55.375 -108.1875 C 68.65625 -108.1875 79.304688 -104.40625 87.328125 -96.84375 C 95.347656 -89.289062 99.421875 -79.226562 99.546875 -66.65625 L 72.9375 -66.65625 C 72.8125 -72.15625 71.113281 -76.625 67.84375 -80.0625 C 64.570312 -83.5 60.25 -85.21875 54.875 -85.21875 C 48.269531 -85.21875 43.28125 -82.8125 39.90625 -78 C 36.539062 -73.1875 34.859375 -65.378906 34.859375 -54.578125 L 34.859375 -51.640625 C 34.859375 -40.710938 36.523438 -32.859375 39.859375 -28.078125 C 43.191406 -23.296875 48.265625 -20.90625 55.078125 -20.90625 Z M 55.078125 -20.90625 "/></g></g><g transform="translate(438.521578, 473.467731)"><g><path d="M 38.578125 -94.640625 C 46.109375 -103.671875 55.566406 -108.1875 66.953125 -108.1875 C 89.992188 -108.1875 101.675781 -94.800781 102 -68.03125 L 102 0 L 73.625 0 L 73.625 -67.25 C 73.625 -73.332031 72.316406 -77.832031 69.703125 -80.75 C 67.085938 -83.664062 62.734375 -85.125 56.640625 -85.125 C 48.328125 -85.125 42.304688 -81.914062 38.578125 -75.5 L 38.578125 0 L 10.203125 0 L 10.203125 -150.796875 L 38.578125 -150.796875 Z M 38.578125 -94.640625 "/></g></g></g><g fill="#ffffff" fill-opacity="1"><g transform="translate(551.034173, 473.467731)"><g/></g></g></svg>