<svg xmlns="http://www.w3.org/2000/svg" xmlns:xlink="http://www.w3.org/1999/xlink" zoomAndPan="magnify" preserveAspectRatio="xMidYMid meet" version="1.0" viewBox="26.17 278.67 629.2 252.75"><defs><g/><clipPath id="1da5aac696"><path d="M 607 439 L 630 439 L 630 531.421875 L 607 531.421875 Z M 607 439 " clip-rule="nonzero"/></clipPath><clipPath id="3586276e7c"><path d="M 576.523438 278.671875 L 655.273438 278.671875 L 655.273438 398 L 576.523438 398 Z M 576.523438 278.671875 " clip-rule="nonzero"/></clipPath></defs><path fill="#5271ff" d="M 640.761719 407.464844 L 596.652344 407.464844 C 594.628906 407.464844 592.953125 409.144531 592.953125 411.167969 C 592.953125 413.1875 594.628906 414.867188 596.652344 414.867188 L 640.761719 414.867188 C 642.785156 414.867188 644.464844 413.1875 644.464844 411.167969 C 644.464844 409.144531 642.785156 407.464844 640.761719 407.464844 Z M 640.761719 407.464844 " fill-opacity="1" fill-rule="nonzero"/><path fill="#5271ff" d="M 639.28125 402.878906 L 598.183594 402.878906 C 597.34375 402.878906 596.652344 403.566406 596.652344 404.40625 L 596.652344 406.527344 L 640.761719 406.527344 L 640.761719 404.40625 C 640.761719 403.519531 640.070312 402.878906 639.28125 402.878906 Z M 639.28125 402.878906 " fill-opacity="1" fill-rule="nonzero"/><path fill="#5271ff" d="M 604.941406 415.855469 L 596.652344 415.855469 C 598.675781 417.136719 606.867188 420.097656 607.0625 426.757812 L 611.949219 426.757812 C 611.75 420.046875 606.964844 417.136719 604.941406 415.855469 Z M 604.941406 415.855469 " fill-opacity="1" fill-rule="nonzero"/><path fill="#5271ff" d="M 610.074219 415.855469 C 612.097656 417.136719 615.058594 420.097656 615.304688 426.757812 L 630.402344 426.757812 C 630.597656 420.046875 638.789062 417.136719 640.8125 415.855469 Z M 610.074219 415.855469 " fill-opacity="1" fill-rule="nonzero"/><path fill="#5271ff" d="M 629.859375 433.863281 C 629.859375 433.863281 629.90625 433.863281 629.859375 433.863281 C 629.90625 433.367188 629.957031 432.875 630.007812 432.382812 L 607.410156 432.382812 C 607.457031 432.828125 607.507812 433.320312 607.507812 433.863281 Z M 629.859375 433.863281 " fill-opacity="1" fill-rule="nonzero"/><path fill="#5271ff" d="M 630.351562 427.746094 L 607.0625 427.746094 C 606.027344 427.746094 605.238281 428.582031 605.238281 429.570312 C 605.238281 430.605469 606.078125 431.394531 607.0625 431.394531 L 630.351562 431.394531 C 631.386719 431.394531 632.179688 430.558594 632.179688 429.570312 C 632.179688 428.582031 631.386719 427.746094 630.351562 427.746094 Z M 630.351562 427.746094 " fill-opacity="1" fill-rule="nonzero"/><path fill="#5271ff" d="M 629.859375 434.847656 L 607.558594 434.847656 C 606.523438 434.847656 605.730469 435.6875 605.730469 436.675781 C 605.730469 437.710938 606.570312 438.5 607.558594 438.5 L 629.859375 438.5 C 630.894531 438.5 631.683594 437.660156 631.683594 436.675781 C 631.734375 435.6875 630.894531 434.847656 629.859375 434.847656 Z M 629.859375 434.847656 " fill-opacity="1" fill-rule="nonzero"/><g clip-path="url(#1da5aac696)"><path fill="#5271ff" d="M 618.707031 439.535156 L 615.304688 439.535156 L 615.304688 502 L 611.949219 439.535156 L 607.605469 439.535156 L 612.9375 525.386719 L 612.984375 526.324219 C 613.378906 529.136719 615.746094 531.308594 618.707031 531.308594 C 621.621094 531.308594 624.035156 529.136719 624.429688 526.324219 L 624.480469 525.386719 L 629.808594 439.535156 Z M 618.707031 439.535156 " fill-opacity="1" fill-rule="nonzero"/></g><g clip-path="url(#3586276e7c)"><path fill="#5271ff" d="M 650.730469 341.300781 C 651.320312 344.261719 650.382812 349.148438 648.65625 353.835938 C 648.113281 346.878906 646.734375 342.289062 646.734375 342.289062 C 643.132812 327.882812 634.59375 318.902344 629.316406 314.855469 C 621.867188 309.183594 622.65625 305.679688 622.902344 305.039062 C 620.484375 310.515625 622.953125 316.238281 622.953125 316.238281 C 615.601562 309.480469 610.269531 309.824219 603.609375 300.746094 C 599.121094 294.726562 602.476562 284.613281 605.042969 278.691406 L 602.378906 281.898438 C 599.8125 285.253906 596.308594 290.679688 595.765625 295.515625 C 594.878906 303.261719 597.738281 311.996094 605.289062 321.515625 C 607.558594 324.429688 608.691406 327.734375 608.9375 331.136719 C 610.074219 344.902344 597.492188 359.3125 595.125 346.679688 C 594.679688 344.164062 593.890625 342.042969 592.902344 340.21875 C 587.625 330.347656 576.523438 328.96875 576.523438 328.96875 C 591.375 334.199219 583.28125 352.304688 583.28125 361.730469 C 583.28125 379.933594 596.800781 394.984375 614.316406 397.402344 C 610.765625 395.03125 598.921875 386.003906 608.148438 374.953125 C 613.972656 367.996094 624.035156 365.230469 623.050781 357.140625 C 623.050781 357.140625 627.292969 370.511719 621.765625 378.847656 C 631.734375 377.515625 634.695312 369.476562 634.695312 369.476562 C 634.695312 369.476562 638.394531 379.539062 634.496094 388.175781 C 631.734375 394.292969 626.304688 396.660156 623.347656 397.550781 C 641.355469 395.574219 655.367188 380.28125 655.367188 361.730469 C 655.316406 355.316406 653.691406 348.109375 650.730469 341.300781 Z M 650.730469 341.300781 " fill-opacity="1" fill-rule="nonzero"/></g><g fill="#ffffff" fill-opacity="1"><g transform="translate(22.243181, 473.467731)"><g><path d="M 120.359375 -119.09375 L 76.578125 -119.09375 L 76.578125 0 L 47.125 0 L 47.125 -119.09375 L 3.921875 -119.09375 L 3.921875 -142.9375 L 120.359375 -142.9375 Z M 120.359375 -119.09375 "/></g></g></g><g fill="#5271ff" fill-opacity="1"><g transform="translate(146.637706, 473.467731)"><g><path d="M 6.484375 -54.09375 C 6.484375 -64.632812 8.507812 -74.023438 12.5625 -82.265625 C 16.625 -90.515625 22.46875 -96.894531 30.09375 -101.40625 C 37.71875 -105.925781 46.566406 -108.1875 56.640625 -108.1875 C 70.972656 -108.1875 82.671875 -103.800781 91.734375 -95.03125 C 100.804688 -86.257812 105.863281 -74.347656 106.90625 -59.296875 L 107.109375 -52.03125 C 107.109375 -35.738281 102.554688 -22.664062 93.453125 -12.8125 C 84.359375 -2.957031 72.15625 1.96875 56.84375 1.96875 C 41.53125 1.96875 29.304688 -2.9375 20.171875 -12.75 C 11.046875 -22.570312 6.484375 -35.925781 6.484375 -52.8125 Z M 34.859375 -52.03125 C 34.859375 -41.945312 36.753906 -34.238281 40.546875 -28.90625 C 44.335938 -23.570312 49.769531 -20.90625 56.84375 -20.90625 C 63.71875 -20.90625 69.082031 -23.539062 72.9375 -28.8125 C 76.800781 -34.082031 78.734375 -42.507812 78.734375 -54.09375 C 78.734375 -63.976562 76.800781 -71.632812 72.9375 -77.0625 C 69.082031 -82.5 63.648438 -85.21875 56.640625 -85.21875 C 49.703125 -85.21875 44.335938 -82.515625 40.546875 -77.109375 C 36.753906 -71.710938 34.859375 -63.351562 34.859375 -52.03125 Z M 34.859375 -52.03125 "/></g></g></g><g fill="#ffffff" fill-opacity="1"><g transform="translate(260.333016, 473.467731)"><g><path d="M 70.59375 -79.625 C 66.726562 -80.144531 63.320312 -80.40625 60.375 -80.40625 C 49.644531 -80.40625 42.609375 -76.773438 39.265625 -69.515625 L 39.265625 0 L 10.890625 0 L 10.890625 -106.21875 L 37.703125 -106.21875 L 38.484375 -93.5625 C 44.179688 -103.3125 52.066406 -108.1875 62.140625 -108.1875 C 65.285156 -108.1875 68.234375 -107.757812 70.984375 -106.90625 Z M 70.59375 -79.625 "/></g></g></g><g fill="#ffffff" fill-opacity="1"><g transform="translate(333.671594, 473.467731)"><g><path d="M 55.078125 -20.90625 C 60.316406 -20.90625 64.570312 -22.34375 67.84375 -25.21875 C 71.113281 -28.101562 72.8125 -31.9375 72.9375 -36.71875 L 99.546875 -36.71875 C 99.484375 -29.519531 97.519531 -22.925781 93.65625 -16.9375 C 89.789062 -10.945312 84.503906 -6.296875 77.796875 -2.984375 C 71.085938 0.316406 63.675781 1.96875 55.5625 1.96875 C 40.382812 1.96875 28.410156 -2.859375 19.640625 -12.515625 C 10.867188 -22.171875 6.484375 -35.507812 6.484375 -52.53125 L 6.484375 -54.390625 C 6.484375 -70.753906 10.832031 -83.8125 19.53125 -93.5625 C 28.238281 -103.3125 40.1875 -108.1875 55.375 -108.1875 C 68.65625 -108.1875 79.304688 -104.40625 87.328125 -96.84375 C 95.347656 -89.289062 99.421875 -79.226562 99.546875 -66.65625 L 72.9375 -66.65625 C 72.8125 -72.15625 71.113281 -76.625 67.84375 -80.0625 C 64.570312 -83.5 60.25 -85.21875 54.875 -85.21875 C 48.269531 -85.21875 43.28125 -82.8125 39.90625 -78 C 36.539062 -73.1875 34.859375 -65.378906 34.859375 -54.578125 L 34.859375 -51.640625 C 34.859375 -40.710938 36.523438 -32.859375 39.859375 -28.078125 C 43.191406 -23.296875 48.265625 -20.90625 55.078125 -20.90625 Z M 55.078125 -20.90625 "/></g></g><g transform="translate(438.525149, 473.467731)"><g><path d="M 38.578125 -94.640625 C 46.109375 -103.671875 55.566406 -108.1875 66.953125 -108.1875 C 89.992188 -108.1875 101.675781 -94.800781 102 -68.03125 L 102 0 L 73.625 0 L 73.625 -67.25 C 73.625 -73.332031 72.316406 -77.832031 69.703125 -80.75 C 67.085938 -83.664062 62.734375 -85.125 56.640625 -85.125 C 48.328125 -85.125 42.304688 -81.914062 38.578125 -75.5 L 38.578125 0 L 10.203125 0 L 10.203125 -150.796875 L 38.578125 -150.796875 Z M 38.578125 -94.640625 "/></g></g></g><g fill="#ffffff" fill-opacity="1"><g transform="translate(551.040029, 473.467731)"><g/></g></g></svg>