<svg xmlns="http://www.w3.org/2000/svg" xmlns:xlink="http://www.w3.org/1999/xlink" zoomAndPan="magnify" preserveAspectRatio="xMidYMid meet" version="1.0" viewBox="33.08 128.3 795.46 319.38"><defs><g/><clipPath id="0604f30e81"><path d="M 768 331 L 797 331 L 797 447.640625 L 768 447.640625 Z M 768 331 " clip-rule="nonzero"/></clipPath><clipPath id="183ff4273d"><path d="M 728.839844 128.296875 L 828.539062 128.296875 L 828.539062 279 L 728.839844 279 Z M 728.839844 128.296875 " clip-rule="nonzero"/></clipPath></defs><path fill="#5271ff" d="M 810.054688 291.117188 L 754.289062 291.117188 C 751.730469 291.117188 749.609375 293.234375 749.609375 295.792969 C 749.609375 298.351562 751.730469 300.472656 754.289062 300.472656 L 810.054688 300.472656 C 812.613281 300.472656 814.730469 298.351562 814.730469 295.792969 C 814.730469 293.234375 812.613281 291.117188 810.054688 291.117188 Z M 810.054688 291.117188 " fill-opacity="1" fill-rule="nonzero"/><path fill="#5271ff" d="M 808.183594 285.3125 L 756.222656 285.3125 C 755.164062 285.3125 754.289062 286.1875 754.289062 287.246094 L 754.289062 289.929688 L 810.054688 289.929688 L 810.054688 287.246094 C 810.054688 286.125 809.179688 285.3125 808.183594 285.3125 Z M 808.183594 285.3125 " fill-opacity="1" fill-rule="nonzero"/><path fill="#5271ff" d="M 764.769531 301.71875 L 754.289062 301.71875 C 756.847656 303.339844 767.203125 307.082031 767.449219 315.503906 L 773.625 315.503906 C 773.375 307.019531 767.324219 303.339844 764.769531 301.71875 Z M 764.769531 301.71875 " fill-opacity="1" fill-rule="nonzero"/><path fill="#5271ff" d="M 771.253906 301.71875 C 773.8125 303.339844 777.554688 307.082031 777.867188 315.503906 L 796.953125 315.503906 C 797.203125 307.019531 807.558594 303.339844 810.117188 301.71875 Z M 771.253906 301.71875 " fill-opacity="1" fill-rule="nonzero"/><path fill="#5271ff" d="M 796.269531 324.488281 C 796.269531 324.488281 796.332031 324.488281 796.269531 324.488281 C 796.332031 323.863281 796.394531 323.238281 796.457031 322.617188 L 767.886719 322.617188 C 767.949219 323.175781 768.011719 323.800781 768.011719 324.488281 Z M 796.269531 324.488281 " fill-opacity="1" fill-rule="nonzero"/><path fill="#5271ff" d="M 796.890625 316.753906 L 767.449219 316.753906 C 766.140625 316.753906 765.144531 317.8125 765.144531 319.058594 C 765.144531 320.371094 766.203125 321.367188 767.449219 321.367188 L 796.890625 321.367188 C 798.203125 321.367188 799.199219 320.308594 799.199219 319.058594 C 799.199219 317.8125 798.203125 316.753906 796.890625 316.753906 Z M 796.890625 316.753906 " fill-opacity="1" fill-rule="nonzero"/><path fill="#5271ff" d="M 796.269531 325.734375 L 768.074219 325.734375 C 766.765625 325.734375 765.765625 326.792969 765.765625 328.042969 C 765.765625 329.351562 766.828125 330.351562 768.074219 330.351562 L 796.269531 330.351562 C 797.578125 330.351562 798.578125 329.289062 798.578125 328.042969 C 798.640625 326.792969 797.578125 325.734375 796.269531 325.734375 Z M 796.269531 325.734375 " fill-opacity="1" fill-rule="nonzero"/><g clip-path="url(#0604f30e81)"><path fill="#5271ff" d="M 782.171875 331.660156 L 777.867188 331.660156 L 777.867188 410.628906 L 773.625 331.660156 L 768.136719 331.660156 L 774.875 440.195312 L 774.9375 441.378906 C 775.433594 444.9375 778.429688 447.679688 782.171875 447.679688 C 785.851562 447.679688 788.910156 444.9375 789.40625 441.378906 L 789.46875 440.195312 L 796.207031 331.660156 Z M 782.171875 331.660156 " fill-opacity="1" fill-rule="nonzero"/></g><g clip-path="url(#183ff4273d)"><path fill="#5271ff" d="M 822.652344 207.46875 C 823.402344 211.210938 822.21875 217.386719 820.035156 223.3125 C 819.347656 214.515625 817.601562 208.714844 817.601562 208.714844 C 813.046875 190.5 802.257812 179.148438 795.582031 174.035156 C 786.164062 166.859375 787.160156 162.433594 787.472656 161.621094 C 784.417969 168.546875 787.535156 175.78125 787.535156 175.78125 C 778.242188 167.234375 771.503906 167.671875 763.085938 156.195312 C 757.40625 148.585938 761.648438 135.796875 764.894531 128.3125 L 761.523438 132.367188 C 758.28125 136.609375 753.851562 143.46875 753.167969 149.582031 C 752.042969 159.375 755.660156 170.417969 765.207031 182.457031 C 768.074219 186.136719 769.507812 190.316406 769.820312 194.617188 C 771.253906 212.023438 755.351562 230.234375 752.355469 214.265625 C 751.792969 211.085938 750.796875 208.402344 749.546875 206.097656 C 742.875 193.621094 728.839844 191.875 728.839844 191.875 C 747.613281 198.484375 737.386719 221.378906 737.386719 233.292969 C 737.386719 256.308594 754.476562 275.335938 776.621094 278.390625 C 772.128906 275.394531 757.160156 263.980469 768.824219 250.007812 C 776.183594 241.214844 788.910156 237.722656 787.660156 227.492188 C 787.660156 227.492188 793.023438 244.394531 786.039062 254.9375 C 798.640625 253.253906 802.382812 243.085938 802.382812 243.085938 C 802.382812 243.085938 807.058594 255.808594 802.132812 266.726562 C 798.640625 274.460938 791.777344 277.453125 788.035156 278.578125 C 810.800781 276.082031 828.515625 256.746094 828.515625 233.292969 C 828.457031 225.183594 826.398438 216.078125 822.652344 207.46875 Z M 822.652344 207.46875 " fill-opacity="1" fill-rule="nonzero"/></g><g fill="#545454" fill-opacity="1"><g transform="translate(28.114257, 375.592353)"><g><path d="M 152.171875 -150.546875 L 96.8125 -150.546875 L 96.8125 0 L 59.578125 0 L 59.578125 -150.546875 L 4.96875 -150.546875 L 4.96875 -180.71875 L 152.171875 -180.71875 Z M 152.171875 -150.546875 "/></g></g></g><g fill="#5271ff" fill-opacity="1"><g transform="translate(185.373439, 375.592353)"><g><path d="M 8.1875 -68.390625 C 8.1875 -81.710938 10.75 -93.582031 15.875 -104 C 21.007812 -114.425781 28.394531 -122.492188 38.03125 -128.203125 C 47.675781 -133.921875 58.867188 -136.78125 71.609375 -136.78125 C 89.734375 -136.78125 104.523438 -131.234375 115.984375 -120.140625 C 127.441406 -109.054688 133.832031 -94 135.15625 -74.96875 L 135.40625 -65.78125 C 135.40625 -45.175781 129.65625 -28.644531 118.15625 -16.1875 C 106.65625 -3.738281 91.222656 2.484375 71.859375 2.484375 C 52.492188 2.484375 37.039062 -3.71875 25.5 -16.125 C 13.957031 -28.539062 8.1875 -45.425781 8.1875 -66.78125 Z M 44.0625 -65.78125 C 44.0625 -53.039062 46.457031 -43.296875 51.25 -36.546875 C 56.050781 -29.804688 62.921875 -26.4375 71.859375 -26.4375 C 80.546875 -26.4375 87.332031 -29.765625 92.21875 -36.421875 C 97.101562 -43.085938 99.546875 -53.742188 99.546875 -68.390625 C 99.546875 -80.878906 97.101562 -90.554688 92.21875 -97.421875 C 87.332031 -104.296875 80.460938 -107.734375 71.609375 -107.734375 C 62.835938 -107.734375 56.050781 -104.316406 51.25 -97.484375 C 46.457031 -90.660156 44.0625 -80.09375 44.0625 -65.78125 Z M 44.0625 -65.78125 "/></g></g></g><g fill="#545454" fill-opacity="1"><g transform="translate(329.104071, 375.592353)"><g><path d="M 89.234375 -100.65625 C 84.359375 -101.320312 80.054688 -101.65625 76.328125 -101.65625 C 62.753906 -101.65625 53.859375 -97.0625 49.640625 -87.875 L 49.640625 0 L 13.78125 0 L 13.78125 -134.296875 L 47.65625 -134.296875 L 48.65625 -118.28125 C 55.851562 -130.613281 65.820312 -136.78125 78.5625 -136.78125 C 82.53125 -136.78125 86.253906 -136.238281 89.734375 -135.15625 Z M 89.234375 -100.65625 "/></g></g></g><g fill="#545454" fill-opacity="1"><g transform="translate(421.820128, 375.592353)"><g><path d="M 69.625 -26.4375 C 76.25 -26.4375 81.628906 -28.253906 85.765625 -31.890625 C 89.898438 -35.535156 92.050781 -40.378906 92.21875 -46.421875 L 125.859375 -46.421875 C 125.773438 -37.316406 123.289062 -28.976562 118.40625 -21.40625 C 113.519531 -13.832031 106.835938 -7.957031 98.359375 -3.78125 C 89.878906 0.394531 80.507812 2.484375 70.25 2.484375 C 51.050781 2.484375 35.90625 -3.613281 24.8125 -15.8125 C 13.726562 -28.019531 8.1875 -44.882812 8.1875 -66.40625 L 8.1875 -68.765625 C 8.1875 -89.441406 13.6875 -105.945312 24.6875 -118.28125 C 35.695312 -130.613281 50.800781 -136.78125 70 -136.78125 C 86.800781 -136.78125 100.269531 -132 110.40625 -122.4375 C 120.539062 -112.882812 125.691406 -100.164062 125.859375 -84.28125 L 92.21875 -84.28125 C 92.050781 -91.226562 89.898438 -96.875 85.765625 -101.21875 C 81.628906 -105.5625 76.164062 -107.734375 69.375 -107.734375 C 61.019531 -107.734375 54.710938 -104.691406 50.453125 -98.609375 C 46.191406 -92.523438 44.0625 -82.660156 44.0625 -69.015625 L 44.0625 -65.28125 C 44.0625 -51.46875 46.171875 -41.539062 50.390625 -35.5 C 54.609375 -29.457031 61.019531 -26.4375 69.625 -26.4375 Z M 69.625 -26.4375 "/></g></g></g><g fill="#545454" fill-opacity="1"><g transform="translate(554.378041, 375.592353)"><g><path d="M 48.78125 -119.640625 C 58.289062 -131.066406 70.242188 -136.78125 84.640625 -136.78125 C 113.765625 -136.78125 128.535156 -119.859375 128.953125 -86.015625 L 128.953125 0 L 93.09375 0 L 93.09375 -85.015625 C 93.09375 -92.710938 91.4375 -98.398438 88.125 -102.078125 C 84.8125 -105.765625 79.304688 -107.609375 71.609375 -107.609375 C 61.109375 -107.609375 53.5 -103.550781 48.78125 -95.4375 L 48.78125 0 L 12.90625 0 L 12.90625 -190.640625 L 48.78125 -190.640625 Z M 48.78125 -119.640625 "/></g></g></g><g fill="#545454" fill-opacity="1"><g transform="translate(696.623905, 375.592353)"><g/></g></g></svg>