<svg xmlns="http://www.w3.org/2000/svg" xmlns:xlink="http://www.w3.org/1999/xlink" zoomAndPan="magnify" preserveAspectRatio="xMidYMid meet" version="1.0" viewBox="9.03 125.16 965.44 325.34"><defs><g/><clipPath id="4ae406372c"><path d="M 868.296875 291.902344 L 959.316406 291.902344 L 959.316406 450.5 L 868.296875 450.5 Z M 868.296875 291.902344 " clip-rule="nonzero"/></clipPath><clipPath id="ee9f3d37ae"><path d="M 853.042969 125.164062 L 974.472656 125.164062 L 974.472656 290.148438 L 853.042969 290.148438 Z M 853.042969 125.164062 " clip-rule="nonzero"/></clipPath></defs><g clip-path="url(#4ae406372c)"><path fill="#231f20" d="M 958.59375 291.941406 C 958.59375 291.941406 930.21875 317.28125 868.390625 299.128906 C 874.308594 304.464844 887.003906 315.324219 914.027344 318.585938 C 918.269531 319.101562 922.945312 318.367188 926.261719 321.863281 L 926.277344 321.878906 C 926.964844 322.597656 926.574219 323.796875 925.589844 323.972656 C 914.574219 325.96875 891.921875 328.53125 874.058594 320.429688 C 874.273438 320.59375 888.386719 331.328125 925.304688 330.996094 C 926.820312 330.980469 927.542969 332.886719 926.378906 333.851562 C 926.371094 333.859375 926.359375 333.867188 926.351562 333.875 C 922.066406 337.386719 915.882812 338.058594 910.71875 338.632812 C 904.667969 339.300781 894.75 339.578125 882.6875 336.707031 C 885.796875 338.558594 891.691406 340.488281 898.726562 341.894531 C 906.132812 343.375 911.964844 349.242188 913.117188 356.714844 C 913.148438 356.90625 913.175781 357.105469 913.199219 357.300781 C 914.335938 366.085938 914.3125 380.046875 906.554688 393.359375 C 906.554688 393.359375 916.851562 382.234375 917.332031 363.230469 C 918 367.445312 918.097656 371.980469 917.570312 376.519531 C 916.449219 386.21875 914.539062 392.84375 914.992188 403.289062 C 915.246094 409.226562 913.882812 415.128906 911.007812 419.730469 C 908.800781 423.265625 906.691406 424.566406 906.5625 424.640625 C 911.140625 423.183594 914.144531 419.023438 916.109375 414.097656 C 918.832031 442.863281 904.449219 450.5 904.449219 450.5 C 917.011719 448.476562 927.628906 426.03125 925.429688 405.597656 C 922.480469 378.257812 940.300781 362.351562 946.058594 345.054688 C 948.179688 338.667969 961.960938 316.253906 958.59375 291.941406 " fill-opacity="1" fill-rule="nonzero"/></g><g clip-path="url(#ee9f3d37ae)"><path fill="#231f20" d="M 964.800781 216.851562 C 964.800781 236.675781 954.984375 234.816406 949.652344 226.515625 C 944.085938 217.839844 949.652344 194.796875 923.664062 174.726562 C 897.679688 154.652344 908.320312 125.164062 908.320312 125.164062 C 884.933594 147.839844 883.867188 175.035156 886.652344 185.628906 C 889.4375 196.222656 887.953125 208.671875 877 214.433594 C 866.046875 220.195312 860.851562 206.070312 860.851562 206.070312 C 852.015625 221.0625 850.734375 244.0625 856.722656 258.863281 C 868.355469 287.605469 896.5625 290.085938 896.5625 290.085938 C 882.757812 281.96875 881.34375 268.890625 882.703125 262.199219 C 885.773438 247.113281 918.21875 229.242188 912.082031 200.496094 C 925.261719 210.160156 923.40625 226.328125 931.574219 243.800781 C 934.90625 250.929688 941.488281 253.898438 948.167969 251.234375 C 950.476562 259.53125 952.4375 280.597656 929.605469 290.085938 C 935.082031 290.085938 959.257812 287.078125 968.402344 269.445312 C 983.4375 240.453125 965.941406 218.890625 964.800781 216.851562 " fill-opacity="1" fill-rule="nonzero"/></g><g fill="#000000" fill-opacity="1"><g transform="translate(0.956391, 373.971085)"><g><path d="M 49.59375 -28.25 L 74.671875 -35.171875 L 74.671875 -160.015625 L 50.453125 -158 L 29.125 -132.34375 L 8.078125 -134.078125 C 8.078125 -150.023438 8.84375 -170.109375 10.375 -194.328125 L 190.875 -194.328125 C 192.414062 -170.109375 193.1875 -150.023438 193.1875 -134.078125 L 172.421875 -132.34375 L 150.796875 -158 L 127.15625 -160.015625 L 127.15625 -46.703125 C 127.15625 -42.097656 127.441406 -39.117188 128.015625 -37.765625 C 128.585938 -36.421875 130.222656 -35.078125 132.921875 -33.734375 L 150.796875 -23.0625 L 149.640625 0 L 51.03125 0 Z M 49.59375 -28.25 "/></g></g></g><g fill="#5271ff" fill-opacity="1"><g transform="translate(202.502555, 373.971085)"><g><path d="M 76.984375 3.75 C 52.566406 3.75 34.351562 -2.492188 22.34375 -14.984375 C 10.332031 -27.484375 4.328125 -46.613281 4.328125 -72.375 C 4.328125 -88.90625 7.351562 -103.320312 13.40625 -115.625 C 19.457031 -127.925781 28.15625 -137.34375 39.5 -143.875 C 50.84375 -150.40625 64.203125 -153.671875 79.578125 -153.671875 C 129.359375 -153.671875 154.25 -127.914062 154.25 -76.40625 C 154.25 -51.226562 147.472656 -31.570312 133.921875 -17.4375 C 120.367188 -3.3125 101.390625 3.75 76.984375 3.75 Z M 81.59375 -29.984375 C 85.4375 -29.984375 88.800781 -30.316406 91.6875 -30.984375 C 94.570312 -31.660156 97.648438 -32.769531 100.921875 -34.3125 C 102.066406 -38.726562 103.023438 -44.394531 103.796875 -51.3125 C 104.566406 -58.238281 104.953125 -64.875 104.953125 -71.21875 C 104.953125 -86.789062 102.5 -98.613281 97.59375 -106.6875 C 92.695312 -114.757812 85.441406 -118.796875 75.828125 -118.796875 C 69.484375 -118.796875 63.046875 -117.929688 56.515625 -116.203125 C 55.171875 -113.316406 54.113281 -108.648438 53.34375 -102.203125 C 52.570312 -95.765625 52.1875 -88.414062 52.1875 -80.15625 C 52.1875 -64.007812 54.734375 -51.609375 59.828125 -42.953125 C 64.921875 -34.304688 72.175781 -29.984375 81.59375 -29.984375 Z M 81.59375 -29.984375 "/></g></g></g><g fill="#000000" fill-opacity="1"><g transform="translate(361.95207, 373.971085)"><g><path d="M 7.78125 -27.390625 L 25.375 -32.578125 L 25.375 -102.640625 C 25.375 -106.867188 25.082031 -109.609375 24.5 -110.859375 C 23.925781 -112.109375 22.390625 -113.503906 19.890625 -115.046875 L 7.203125 -121.96875 L 8.078125 -143.59375 C 11.335938 -144.351562 14.125 -144.832031 16.4375 -145.03125 C 39.695312 -149.832031 56.898438 -152.425781 68.046875 -152.8125 C 69.773438 -147.8125 71.410156 -141.566406 72.953125 -134.078125 C 84.484375 -143.109375 94.285156 -149.351562 102.359375 -152.8125 L 118.796875 -152.8125 C 118.597656 -145.507812 118.113281 -137.582031 117.34375 -129.03125 C 116.582031 -120.476562 115.625 -113.601562 114.46875 -108.40625 C 107.550781 -108.789062 102.457031 -108.984375 99.1875 -108.984375 C 91.113281 -108.984375 82.75 -108.503906 74.09375 -107.546875 L 74.09375 -42.09375 C 74.09375 -38.0625 74.378906 -35.367188 74.953125 -34.015625 C 75.535156 -32.671875 77.078125 -31.234375 79.578125 -29.703125 L 96.875 -20.46875 L 95.71875 0 L 9.21875 0 Z M 7.78125 -27.390625 "/></g></g></g><g fill="#000000" fill-opacity="1"><g transform="translate(484.781168, 373.971085)"><g><path d="M 74.671875 3.75 C 52.378906 3.75 35.082031 -3.117188 22.78125 -16.859375 C 10.476562 -30.609375 4.328125 -49.59375 4.328125 -73.8125 C 4.328125 -98.988281 10.910156 -118.59375 24.078125 -132.625 C 37.242188 -146.65625 55.265625 -153.671875 78.140625 -153.671875 C 95.441406 -153.671875 113.988281 -149.734375 133.78125 -141.859375 C 133.394531 -136.285156 132.53125 -128.929688 131.1875 -119.796875 C 129.84375 -110.671875 128.398438 -102.265625 126.859375 -94.578125 L 107.546875 -92.84375 L 89.671875 -115.625 C 84.867188 -116.582031 79.488281 -117.0625 73.53125 -117.0625 C 68.71875 -117.0625 64.296875 -116.773438 60.265625 -116.203125 C 55.835938 -107.742188 53.625 -95.820312 53.625 -80.4375 C 53.625 -64.675781 56.410156 -53 61.984375 -45.40625 C 67.566406 -37.8125 76.023438 -34.015625 87.359375 -34.015625 C 92.742188 -34.015625 99.28125 -34.832031 106.96875 -36.46875 C 114.65625 -38.101562 122.535156 -40.457031 130.609375 -43.53125 L 137.53125 -14.703125 C 129.84375 -9.316406 120.28125 -4.894531 108.84375 -1.4375 C 97.40625 2.019531 86.015625 3.75 74.671875 3.75 Z M 74.671875 3.75 "/></g></g></g><g fill="#000000" fill-opacity="1"><g transform="translate(630.100163, 373.971085)"><g><path d="M 7.5 -27.390625 L 25.375 -32.578125 L 25.375 -170.6875 C 25.375 -174.914062 25.082031 -177.65625 24.5 -178.90625 C 23.925781 -180.15625 22.390625 -181.550781 19.890625 -183.09375 L 7.203125 -189.71875 L 8.078125 -211.640625 L 17.015625 -213.078125 C 42.390625 -217.691406 60.171875 -220.191406 70.359375 -220.578125 C 72.085938 -215.960938 73.332031 -210.960938 74.09375 -205.578125 L 74.09375 -139.84375 C 84.664062 -144.644531 93.648438 -148.148438 101.046875 -150.359375 C 108.453125 -152.566406 115.804688 -153.671875 123.109375 -153.671875 C 153.097656 -153.671875 168.09375 -135.410156 168.09375 -98.890625 L 168.09375 -42.09375 C 168.09375 -38.0625 168.378906 -35.367188 168.953125 -34.015625 C 169.535156 -32.671875 171.171875 -31.234375 173.859375 -29.703125 L 187.703125 -21.625 L 186.546875 0 L 106.96875 0 L 105.53125 -27.390625 L 119.65625 -31.421875 L 119.65625 -86.203125 C 119.65625 -94.660156 119.414062 -100.664062 118.9375 -104.21875 C 118.457031 -107.78125 116.867188 -110.519531 114.171875 -112.4375 C 111.484375 -114.363281 106.96875 -115.328125 100.625 -115.328125 C 94.476562 -115.328125 85.632812 -114.269531 74.09375 -112.15625 L 74.09375 -42.09375 C 74.09375 -38.0625 74.378906 -35.367188 74.953125 -34.015625 C 75.535156 -32.671875 77.078125 -31.234375 79.578125 -29.703125 L 93.703125 -21.625 L 92.546875 0 L 8.9375 0 Z M 7.5 -27.390625 "/></g></g></g></svg>