<svg xmlns="http://www.w3.org/2000/svg" xmlns:xlink="http://www.w3.org/1999/xlink" zoomAndPan="magnify" preserveAspectRatio="xMidYMid meet" version="1.0" viewBox="40.81 128.3 787.73 319.38"><defs><g/><clipPath id="276d8b3e1a"><path d="M 768 331 L 797 331 L 797 447.640625 L 768 447.640625 Z M 768 331 " clip-rule="nonzero"/></clipPath><clipPath id="a469b16e9e"><path d="M 728.839844 128.296875 L 828.539062 128.296875 L 828.539062 279 L 728.839844 279 Z M 728.839844 128.296875 " clip-rule="nonzero"/></clipPath></defs><path fill="#545454" d="M 810.054688 291.117188 L 754.289062 291.117188 C 751.730469 291.117188 749.609375 293.234375 749.609375 295.792969 C 749.609375 298.351562 751.730469 300.472656 754.289062 300.472656 L 810.054688 300.472656 C 812.613281 300.472656 814.730469 298.351562 814.730469 295.792969 C 814.730469 293.234375 812.613281 291.117188 810.054688 291.117188 Z M 810.054688 291.117188 " fill-opacity="1" fill-rule="nonzero"/><path fill="#545454" d="M 808.183594 285.3125 L 756.222656 285.3125 C 755.164062 285.3125 754.289062 286.1875 754.289062 287.246094 L 754.289062 289.929688 L 810.054688 289.929688 L 810.054688 287.246094 C 810.054688 286.125 809.179688 285.3125 808.183594 285.3125 Z M 808.183594 285.3125 " fill-opacity="1" fill-rule="nonzero"/><path fill="#545454" d="M 764.769531 301.71875 L 754.289062 301.71875 C 756.847656 303.339844 767.203125 307.082031 767.449219 315.503906 L 773.625 315.503906 C 773.375 307.019531 767.324219 303.339844 764.769531 301.71875 Z M 764.769531 301.71875 " fill-opacity="1" fill-rule="nonzero"/><path fill="#545454" d="M 771.253906 301.71875 C 773.8125 303.339844 777.554688 307.082031 777.867188 315.503906 L 796.953125 315.503906 C 797.203125 307.019531 807.558594 303.339844 810.117188 301.71875 Z M 771.253906 301.71875 " fill-opacity="1" fill-rule="nonzero"/><path fill="#545454" d="M 796.269531 324.488281 C 796.269531 324.488281 796.332031 324.488281 796.269531 324.488281 C 796.332031 323.863281 796.394531 323.238281 796.457031 322.617188 L 767.886719 322.617188 C 767.949219 323.175781 768.011719 323.800781 768.011719 324.488281 Z M 796.269531 324.488281 " fill-opacity="1" fill-rule="nonzero"/><path fill="#545454" d="M 796.890625 316.753906 L 767.449219 316.753906 C 766.140625 316.753906 765.144531 317.8125 765.144531 319.058594 C 765.144531 320.371094 766.203125 321.367188 767.449219 321.367188 L 796.890625 321.367188 C 798.203125 321.367188 799.199219 320.308594 799.199219 319.058594 C 799.199219 317.8125 798.203125 316.753906 796.890625 316.753906 Z M 796.890625 316.753906 " fill-opacity="1" fill-rule="nonzero"/><path fill="#545454" d="M 796.269531 325.734375 L 768.074219 325.734375 C 766.765625 325.734375 765.765625 326.792969 765.765625 328.042969 C 765.765625 329.351562 766.828125 330.351562 768.074219 330.351562 L 796.269531 330.351562 C 797.578125 330.351562 798.578125 329.289062 798.578125 328.042969 C 798.640625 326.792969 797.578125 325.734375 796.269531 325.734375 Z M 796.269531 325.734375 " fill-opacity="1" fill-rule="nonzero"/><g clip-path="url(#276d8b3e1a)"><path fill="#545454" d="M 782.171875 331.660156 L 777.867188 331.660156 L 777.867188 410.628906 L 773.625 331.660156 L 768.136719 331.660156 L 774.875 440.195312 L 774.9375 441.378906 C 775.433594 444.9375 778.429688 447.679688 782.171875 447.679688 C 785.851562 447.679688 788.910156 444.9375 789.40625 441.378906 L 789.46875 440.195312 L 796.207031 331.660156 Z M 782.171875 331.660156 " fill-opacity="1" fill-rule="nonzero"/></g><g clip-path="url(#a469b16e9e)"><path fill="#545454" d="M 822.652344 207.46875 C 823.402344 211.210938 822.21875 217.386719 820.035156 223.3125 C 819.347656 214.515625 817.601562 208.714844 817.601562 208.714844 C 813.046875 190.5 802.257812 179.148438 795.582031 174.035156 C 786.164062 166.859375 787.160156 162.433594 787.472656 161.621094 C 784.417969 168.546875 787.535156 175.78125 787.535156 175.78125 C 778.242188 167.234375 771.503906 167.671875 763.085938 156.195312 C 757.40625 148.585938 761.648438 135.796875 764.894531 128.3125 L 761.523438 132.367188 C 758.28125 136.609375 753.851562 143.46875 753.167969 149.582031 C 752.042969 159.375 755.660156 170.417969 765.207031 182.457031 C 768.074219 186.136719 769.507812 190.316406 769.820312 194.617188 C 771.253906 212.023438 755.351562 230.234375 752.355469 214.265625 C 751.792969 211.085938 750.796875 208.402344 749.546875 206.097656 C 742.875 193.621094 728.839844 191.875 728.839844 191.875 C 747.613281 198.484375 737.386719 221.378906 737.386719 233.292969 C 737.386719 256.308594 754.476562 275.335938 776.621094 278.390625 C 772.128906 275.394531 757.160156 263.980469 768.824219 250.007812 C 776.183594 241.214844 788.910156 237.722656 787.660156 227.492188 C 787.660156 227.492188 793.023438 244.394531 786.039062 254.9375 C 798.640625 253.253906 802.382812 243.085938 802.382812 243.085938 C 802.382812 243.085938 807.058594 255.808594 802.132812 266.726562 C 798.640625 274.460938 791.777344 277.453125 788.035156 278.578125 C 810.800781 276.082031 828.515625 256.746094 828.515625 233.292969 C 828.457031 225.183594 826.398438 216.078125 822.652344 207.46875 Z M 822.652344 207.46875 " fill-opacity="1" fill-rule="nonzero"/></g><g fill="#545454" fill-opacity="1"><g transform="translate(34.726989, 369.705451)"><g><path d="M 145.828125 -161.09375 L 87.75 -161.09375 L 87.75 0 L 64.046875 0 L 64.046875 -161.09375 L 6.078125 -161.09375 L 6.078125 -180.703125 L 145.828125 -180.703125 Z M 145.828125 -161.09375 "/></g></g></g><g fill="#5271ff" fill-opacity="1"><g transform="translate(186.382101, 369.705451)"><g><path d="M 11.296875 -68.390625 C 11.296875 -81.535156 13.878906 -93.363281 19.046875 -103.875 C 24.222656 -114.382812 31.421875 -122.492188 40.640625 -128.203125 C 49.867188 -133.910156 60.398438 -136.765625 72.234375 -136.765625 C 90.515625 -136.765625 105.300781 -130.4375 116.59375 -117.78125 C 127.894531 -105.125 133.546875 -88.285156 133.546875 -67.265625 L 133.546875 -65.65625 C 133.546875 -52.582031 131.039062 -40.851562 126.03125 -30.46875 C 121.019531 -20.082031 113.859375 -11.992188 104.546875 -6.203125 C 95.242188 -0.410156 84.554688 2.484375 72.484375 2.484375 C 54.273438 2.484375 39.523438 -3.84375 28.234375 -16.5 C 16.941406 -29.164062 11.296875 -45.921875 11.296875 -66.765625 Z M 34.375 -65.65625 C 34.375 -50.757812 37.828125 -38.800781 44.734375 -29.78125 C 51.648438 -20.769531 60.898438 -16.265625 72.484375 -16.265625 C 84.148438 -16.265625 93.414062 -20.832031 100.28125 -29.96875 C 107.144531 -39.113281 110.578125 -51.921875 110.578125 -68.390625 C 110.578125 -83.109375 107.082031 -95.039062 100.09375 -104.1875 C 93.101562 -113.332031 83.816406 -117.90625 72.234375 -117.90625 C 60.898438 -117.90625 51.753906 -113.394531 44.796875 -104.375 C 37.847656 -95.351562 34.375 -82.445312 34.375 -65.65625 Z M 34.375 -65.65625 "/></g></g></g><g fill="#545454" fill-opacity="1"><g transform="translate(331.334813, 369.705451)"><g><path d="M 82.28125 -113.6875 C 78.8125 -114.257812 75.046875 -114.546875 70.984375 -114.546875 C 55.929688 -114.546875 45.710938 -108.132812 40.328125 -95.3125 L 40.328125 0 L 17.375 0 L 17.375 -134.28125 L 39.71875 -134.28125 L 40.09375 -118.765625 C 47.613281 -130.765625 58.285156 -136.765625 72.109375 -136.765625 C 76.578125 -136.765625 79.96875 -136.1875 82.28125 -135.03125 Z M 82.28125 -113.6875 "/></g></g></g><g fill="#545454" fill-opacity="1"><g transform="translate(417.336953, 369.705451)"><g><path d="M 71.234375 -16.265625 C 79.429688 -16.265625 86.585938 -18.742188 92.703125 -23.703125 C 98.828125 -28.671875 102.222656 -34.878906 102.890625 -42.328125 L 124.609375 -42.328125 C 124.191406 -34.628906 121.539062 -27.300781 116.65625 -20.34375 C 111.78125 -13.394531 105.265625 -7.851562 97.109375 -3.71875 C 88.960938 0.414062 80.335938 2.484375 71.234375 2.484375 C 52.953125 2.484375 38.410156 -3.613281 27.609375 -15.8125 C 16.816406 -28.019531 11.421875 -44.71875 11.421875 -65.90625 L 11.421875 -69.75 C 11.421875 -82.820312 13.816406 -94.445312 18.609375 -104.625 C 23.410156 -114.800781 30.300781 -122.703125 39.28125 -128.328125 C 48.257812 -133.953125 58.867188 -136.765625 71.109375 -136.765625 C 86.171875 -136.765625 98.6875 -132.253906 108.65625 -123.234375 C 118.625 -114.210938 123.941406 -102.503906 124.609375 -88.109375 L 102.890625 -88.109375 C 102.222656 -96.796875 98.929688 -103.929688 93.015625 -109.515625 C 87.097656 -115.109375 79.796875 -117.90625 71.109375 -117.90625 C 59.441406 -117.90625 50.398438 -113.703125 43.984375 -105.296875 C 37.578125 -96.898438 34.375 -84.757812 34.375 -68.875 L 34.375 -64.53125 C 34.375 -49.0625 37.554688 -37.148438 43.921875 -28.796875 C 50.296875 -20.441406 59.398438 -16.265625 71.234375 -16.265625 Z M 71.234375 -16.265625 "/></g></g></g><g fill="#545454" fill-opacity="1"><g transform="translate(550.373455, 369.705451)"><g><path d="M 40.328125 -118.03125 C 50.503906 -130.519531 63.742188 -136.765625 80.046875 -136.765625 C 108.429688 -136.765625 122.742188 -120.753906 122.984375 -88.734375 L 122.984375 0 L 100.03125 0 L 100.03125 -88.859375 C 99.945312 -98.535156 97.734375 -105.691406 93.390625 -110.328125 C 89.046875 -114.960938 82.28125 -117.28125 73.09375 -117.28125 C 65.644531 -117.28125 59.109375 -115.289062 53.484375 -111.3125 C 47.859375 -107.34375 43.472656 -102.132812 40.328125 -95.6875 L 40.328125 0 L 17.375 0 L 17.375 -190.625 L 40.328125 -190.625 Z M 40.328125 -118.03125 "/></g></g></g><g fill="#545454" fill-opacity="1"><g transform="translate(690.392005, 369.705451)"><g/></g></g></svg>